<svg width="161" height="12" viewBox="0 0 161 12" fill="none" xmlns="http://www.w3.org/2000/svg">
<path d="M1.274 1.19V10.948H-2.83122e-06V1.19H1.274ZM7.18331 3.136C8.11664 3.136 8.87264 3.42066 9.45131 3.99C10.03 4.55 10.3193 5.362 10.3193 6.426V10.948H9.05931V6.608C9.05931 5.84266 8.86798 5.25933 8.48531 4.858C8.10264 4.44733 7.57998 4.242 6.91731 4.242C6.24531 4.242 5.70864 4.452 5.30731 4.872C4.91531 5.292 4.71931 5.90333 4.71931 6.706V10.948H3.44531V3.276H4.71931V4.368C4.97131 3.976 5.31198 3.67266 5.74131 3.458C6.17998 3.24333 6.66064 3.136 7.18331 3.136ZM15.1164 11.074C14.5284 11.074 14.0011 10.976 13.5344 10.78C13.0677 10.5747 12.6991 10.2947 12.4284 9.94C12.1577 9.576 12.0084 9.16066 11.9804 8.694H13.2964C13.3337 9.07666 13.5111 9.38933 13.8284 9.632C14.1551 9.87466 14.5797 9.996 15.1024 9.996C15.5877 9.996 15.9704 9.88866 16.2504 9.674C16.5304 9.45933 16.6704 9.18866 16.6704 8.862C16.6704 8.526 16.5211 8.27866 16.2224 8.12C15.9237 7.952 15.4617 7.78866 14.8364 7.63C14.2671 7.48066 13.8004 7.33133 13.4364 7.182C13.0817 7.02333 12.7737 6.79466 12.5124 6.496C12.2604 6.188 12.1344 5.78666 12.1344 5.292C12.1344 4.9 12.2511 4.54066 12.4844 4.214C12.7177 3.88733 13.0491 3.63066 13.4784 3.444C13.9077 3.248 14.3977 3.15 14.9484 3.15C15.7977 3.15 16.4837 3.36466 17.0064 3.794C17.5291 4.22333 17.8091 4.81133 17.8464 5.558H16.5724C16.5444 5.15666 16.3811 4.83466 16.0824 4.592C15.7931 4.34933 15.4011 4.228 14.9064 4.228C14.4491 4.228 14.0851 4.326 13.8144 4.522C13.5437 4.718 13.4084 4.97466 13.4084 5.292C13.4084 5.544 13.4877 5.754 13.6464 5.922C13.8144 6.08066 14.0197 6.21133 14.2624 6.314C14.5144 6.40733 14.8597 6.51466 15.2984 6.636C15.8491 6.78533 16.2971 6.93466 16.6424 7.084C16.9877 7.224 17.2817 7.43866 17.5244 7.728C17.7764 8.01733 17.9071 8.39533 17.9164 8.862C17.9164 9.282 17.7997 9.66 17.5664 9.996C17.3331 10.332 17.0017 10.598 16.5724 10.794C16.1524 10.9807 15.6671 11.074 15.1164 11.074ZM20.3728 2.03C20.1302 2.03 19.9248 1.946 19.7568 1.778C19.5888 1.61 19.5048 1.40466 19.5048 1.162C19.5048 0.919331 19.5888 0.713998 19.7568 0.545998C19.9248 0.377998 20.1302 0.293998 20.3728 0.293998C20.6062 0.293998 20.8022 0.377998 20.9608 0.545998C21.1288 0.713998 21.2128 0.919331 21.2128 1.162C21.2128 1.40466 21.1288 1.61 20.9608 1.778C20.8022 1.946 20.6062 2.03 20.3728 2.03ZM20.9888 3.276V10.948H19.7148V3.276H20.9888ZM24.4342 4.522C24.6582 4.08333 24.9755 3.74266 25.3862 3.5C25.8062 3.25733 26.3148 3.136 26.9122 3.136V4.452H26.5762C25.1482 4.452 24.4342 5.22666 24.4342 6.776V10.948H23.1602V3.276H24.4342V4.522ZM27.9068 7.084C27.9068 6.3 28.0655 5.614 28.3828 5.026C28.7001 4.42866 29.1341 3.96666 29.6848 3.64C30.2448 3.31333 30.8655 3.15 31.5468 3.15C32.2188 3.15 32.8021 3.29466 33.2968 3.584C33.7915 3.87333 34.1601 4.23733 34.4028 4.676V3.276H35.6908V10.948H34.4028V9.52C34.1508 9.968 33.7728 10.3413 33.2688 10.64C32.7741 10.9293 32.1955 11.074 31.5328 11.074C30.8515 11.074 30.2355 10.906 29.6848 10.57C29.1341 10.234 28.7001 9.76266 28.3828 9.156C28.0655 8.54933 27.9068 7.85866 27.9068 7.084ZM34.4028 7.098C34.4028 6.51933 34.2861 6.01533 34.0528 5.586C33.8195 5.15666 33.5021 4.83 33.1008 4.606C32.7088 4.37266 32.2748 4.256 31.7988 4.256C31.3228 4.256 30.8888 4.368 30.4968 4.592C30.1048 4.816 29.7921 5.14266 29.5588 5.572C29.3255 6.00133 29.2088 6.50533 29.2088 7.084C29.2088 7.672 29.3255 8.18533 29.5588 8.624C29.7921 9.05333 30.1048 9.38466 30.4968 9.618C30.8888 9.842 31.3228 9.954 31.7988 9.954C32.2748 9.954 32.7088 9.842 33.1008 9.618C33.5021 9.38466 33.8195 9.05333 34.0528 8.624C34.2861 8.18533 34.4028 7.67666 34.4028 7.098ZM48.3802 3.276V10.948H47.1062V9.814C46.8635 10.206 46.5228 10.514 46.0842 10.738C45.6548 10.9527 45.1788 11.06 44.6562 11.06C44.0588 11.06 43.5222 10.9387 43.0462 10.696C42.5702 10.444 42.1922 10.0707 41.9122 9.576C41.6415 9.08133 41.5062 8.47933 41.5062 7.77V3.276H42.7662V7.602C42.7662 8.358 42.9575 8.94133 43.3402 9.352C43.7228 9.75333 44.2455 9.954 44.9082 9.954C45.5895 9.954 46.1262 9.744 46.5182 9.324C46.9102 8.904 47.1062 8.29266 47.1062 7.49V3.276H48.3802ZM59.7572 3.136C60.3546 3.136 60.8866 3.262 61.3532 3.514C61.8199 3.75666 62.1886 4.12533 62.4592 4.62C62.7299 5.11466 62.8652 5.71666 62.8652 6.426V10.948H61.6052V6.608C61.6052 5.84266 61.4139 5.25933 61.0312 4.858C60.6579 4.44733 60.1492 4.242 59.5052 4.242C58.8426 4.242 58.3152 4.45666 57.9232 4.886C57.5312 5.306 57.3352 5.91733 57.3352 6.72V10.948H56.0752V6.608C56.0752 5.84266 55.8839 5.25933 55.5012 4.858C55.1279 4.44733 54.6192 4.242 53.9752 4.242C53.3126 4.242 52.7852 4.45666 52.3932 4.886C52.0012 5.306 51.8052 5.91733 51.8052 6.72V10.948H50.5312V3.276H51.8052V4.382C52.0572 3.98066 52.3932 3.67266 52.8132 3.458C53.2426 3.24333 53.7139 3.136 54.2272 3.136C54.8712 3.136 55.4406 3.28066 55.9352 3.57C56.4299 3.85933 56.7986 4.284 57.0412 4.844C57.2559 4.30266 57.6106 3.88266 58.1052 3.584C58.5999 3.28533 59.1506 3.136 59.7572 3.136ZM75.6875 6.818C75.6875 7.06066 75.6735 7.31733 75.6455 7.588H69.5135C69.5602 8.344 69.8168 8.93666 70.2835 9.366C70.7595 9.786 71.3335 9.996 72.0055 9.996C72.5562 9.996 73.0135 9.87 73.3775 9.618C73.7508 9.35666 74.0122 9.01133 74.1615 8.582H75.5335C75.3282 9.31933 74.9175 9.92133 74.3015 10.388C73.6855 10.8453 72.9202 11.074 72.0055 11.074C71.2775 11.074 70.6242 10.9107 70.0455 10.584C69.4762 10.2573 69.0282 9.79533 68.7015 9.198C68.3748 8.59133 68.2115 7.89133 68.2115 7.098C68.2115 6.30466 68.3702 5.60933 68.6875 5.012C69.0048 4.41466 69.4482 3.95733 70.0175 3.64C70.5962 3.31333 71.2588 3.15 72.0055 3.15C72.7335 3.15 73.3775 3.30866 73.9375 3.626C74.4975 3.94333 74.9268 4.382 75.2255 4.942C75.5335 5.49266 75.6875 6.118 75.6875 6.818ZM74.3715 6.552C74.3715 6.06666 74.2642 5.65133 74.0495 5.306C73.8348 4.95133 73.5408 4.68533 73.1675 4.508C72.8035 4.32133 72.3975 4.228 71.9495 4.228C71.3055 4.228 70.7548 4.43333 70.2975 4.844C69.8495 5.25466 69.5928 5.824 69.5275 6.552H74.3715ZM82.6891 5.278V6.356H77.1031V5.278H82.6891ZM94.3061 3.136C94.9034 3.136 95.4354 3.262 95.9021 3.514C96.3687 3.75666 96.7374 4.12533 97.0081 4.62C97.2787 5.11466 97.4141 5.71666 97.4141 6.426V10.948H96.1541V6.608C96.1541 5.84266 95.9627 5.25933 95.5801 4.858C95.2067 4.44733 94.6981 4.242 94.0541 4.242C93.3914 4.242 92.8641 4.45666 92.4721 4.886C92.0801 5.306 91.8841 5.91733 91.8841 6.72V10.948H90.6241V6.608C90.6241 5.84266 90.4327 5.25933 90.0501 4.858C89.6767 4.44733 89.1681 4.242 88.5241 4.242C87.8614 4.242 87.3341 4.45666 86.9421 4.886C86.5501 5.306 86.3541 5.91733 86.3541 6.72V10.948H85.0801V3.276H86.3541V4.382C86.6061 3.98066 86.9421 3.67266 87.3621 3.458C87.7914 3.24333 88.2627 3.136 88.7761 3.136C89.4201 3.136 89.9894 3.28066 90.4841 3.57C90.9787 3.85933 91.3474 4.284 91.5901 4.844C91.8047 4.30266 92.1594 3.88266 92.6541 3.584C93.1487 3.28533 93.6994 3.136 94.3061 3.136ZM99.0279 7.084C99.0279 6.3 99.1866 5.614 99.5039 5.026C99.8212 4.42866 100.255 3.96666 100.806 3.64C101.366 3.31333 101.987 3.15 102.668 3.15C103.34 3.15 103.923 3.29466 104.418 3.584C104.913 3.87333 105.281 4.23733 105.524 4.676V3.276H106.812V10.948H105.524V9.52C105.272 9.968 104.894 10.3413 104.39 10.64C103.895 10.9293 103.317 11.074 102.654 11.074C101.973 11.074 101.357 10.906 100.806 10.57C100.255 10.234 99.8212 9.76266 99.5039 9.156C99.1866 8.54933 99.0279 7.85866 99.0279 7.084ZM105.524 7.098C105.524 6.51933 105.407 6.01533 105.174 5.586C104.941 5.15666 104.623 4.83 104.222 4.606C103.83 4.37266 103.396 4.256 102.92 4.256C102.444 4.256 102.01 4.368 101.618 4.592C101.226 4.816 100.913 5.14266 100.68 5.572C100.447 6.00133 100.33 6.50533 100.33 7.084C100.33 7.672 100.447 8.18533 100.68 8.624C100.913 9.05333 101.226 9.38466 101.618 9.618C102.01 9.842 102.444 9.954 102.92 9.954C103.396 9.954 103.83 9.842 104.222 9.618C104.623 9.38466 104.941 9.05333 105.174 8.624C105.407 8.18533 105.524 7.67666 105.524 7.098ZM109.623 2.03C109.38 2.03 109.175 1.946 109.007 1.778C108.839 1.61 108.755 1.40466 108.755 1.162C108.755 0.919331 108.839 0.713998 109.007 0.545998C109.175 0.377998 109.38 0.293998 109.623 0.293998C109.856 0.293998 110.052 0.377998 110.211 0.545998C110.379 0.713998 110.463 0.919331 110.463 1.162C110.463 1.40466 110.379 1.61 110.211 1.778C110.052 1.946 109.856 2.03 109.623 2.03ZM110.239 3.276V10.948H108.965V3.276H110.239ZM113.684 0.587998V10.948H112.41V0.587998H113.684ZM122.444 9.772L124.824 3.276H126.182L123.172 10.948H121.688L118.678 3.276H120.05L122.444 9.772ZM126.96 7.084C126.96 6.3 127.118 5.614 127.436 5.026C127.753 4.42866 128.187 3.96666 128.738 3.64C129.298 3.31333 129.918 3.15 130.6 3.15C131.272 3.15 131.855 3.29466 132.35 3.584C132.844 3.87333 133.213 4.23733 133.456 4.676V3.276H134.744V10.948H133.456V9.52C133.204 9.968 132.826 10.3413 132.322 10.64C131.827 10.9293 131.248 11.074 130.586 11.074C129.904 11.074 129.288 10.906 128.738 10.57C128.187 10.234 127.753 9.76266 127.436 9.156C127.118 8.54933 126.96 7.85866 126.96 7.084ZM133.456 7.098C133.456 6.51933 133.339 6.01533 133.106 5.586C132.872 5.15666 132.555 4.83 132.154 4.606C131.762 4.37266 131.328 4.256 130.852 4.256C130.376 4.256 129.942 4.368 129.55 4.592C129.158 4.816 128.845 5.14266 128.612 5.572C128.378 6.00133 128.262 6.50533 128.262 7.084C128.262 7.672 128.378 8.18533 128.612 8.624C128.845 9.05333 129.158 9.38466 129.55 9.618C129.942 9.842 130.376 9.954 130.852 9.954C131.328 9.954 131.762 9.842 132.154 9.618C132.555 9.38466 132.872 9.05333 133.106 8.624C133.339 8.18533 133.456 7.67666 133.456 7.098ZM132.462 1.106L129.48 2.702V1.75L132.462 -2.86102e-06V1.106ZM138.17 0.587998V10.948H136.896V0.587998H138.17ZM141 2.03C140.757 2.03 140.552 1.946 140.384 1.778C140.216 1.61 140.132 1.40466 140.132 1.162C140.132 0.919331 140.216 0.713998 140.384 0.545998C140.552 0.377998 140.757 0.293998 141 0.293998C141.233 0.293998 141.429 0.377998 141.588 0.545998C141.756 0.713998 141.84 0.919331 141.84 1.162C141.84 1.40466 141.756 1.61 141.588 1.778C141.429 1.946 141.233 2.03 141 2.03ZM141.616 3.276V10.948H140.342V3.276H141.616ZM143.311 7.084C143.311 6.3 143.47 5.614 143.787 5.026C144.104 4.42866 144.538 3.96666 145.089 3.64C145.649 3.31333 146.274 3.15 146.965 3.15C147.562 3.15 148.118 3.29 148.631 3.57C149.144 3.84066 149.536 4.2 149.807 4.648V0.587998H151.095V10.948H149.807V9.506C149.555 9.96333 149.182 10.3413 148.687 10.64C148.192 10.9293 147.614 11.074 146.951 11.074C146.27 11.074 145.649 10.906 145.089 10.57C144.538 10.234 144.104 9.76266 143.787 9.156C143.47 8.54933 143.311 7.85866 143.311 7.084ZM149.807 7.098C149.807 6.51933 149.69 6.01533 149.457 5.586C149.224 5.15666 148.906 4.83 148.505 4.606C148.113 4.37266 147.679 4.256 147.203 4.256C146.727 4.256 146.293 4.368 145.901 4.592C145.509 4.816 145.196 5.14266 144.963 5.572C144.73 6.00133 144.613 6.50533 144.613 7.084C144.613 7.672 144.73 8.18533 144.963 8.624C145.196 9.05333 145.509 9.38466 145.901 9.618C146.293 9.842 146.727 9.954 147.203 9.954C147.679 9.954 148.113 9.842 148.505 9.618C148.906 9.38466 149.224 9.05333 149.457 8.624C149.69 8.18533 149.807 7.67666 149.807 7.098ZM156.594 11.074C155.875 11.074 155.222 10.9107 154.634 10.584C154.055 10.2573 153.598 9.79533 153.262 9.198C152.935 8.59133 152.772 7.89133 152.772 7.098C152.772 6.314 152.94 5.62333 153.276 5.026C153.621 4.41933 154.088 3.95733 154.676 3.64C155.264 3.31333 155.922 3.15 156.65 3.15C157.378 3.15 158.036 3.31333 158.624 3.64C159.212 3.95733 159.674 4.41466 160.01 5.012C160.355 5.60933 160.528 6.30466 160.528 7.098C160.528 7.89133 160.351 8.59133 159.996 9.198C159.651 9.79533 159.179 10.2573 158.582 10.584C157.985 10.9107 157.322 11.074 156.594 11.074ZM156.594 9.954C157.051 9.954 157.481 9.84666 157.882 9.632C158.283 9.41733 158.605 9.09533 158.848 8.666C159.1 8.23666 159.226 7.714 159.226 7.098C159.226 6.482 159.105 5.95933 158.862 5.53C158.619 5.10066 158.302 4.78333 157.91 4.578C157.518 4.36333 157.093 4.256 156.636 4.256C156.169 4.256 155.74 4.36333 155.348 4.578C154.965 4.78333 154.657 5.10066 154.424 5.53C154.191 5.95933 154.074 6.482 154.074 7.098C154.074 7.72333 154.186 8.25066 154.41 8.68C154.643 9.10933 154.951 9.43133 155.334 9.646C155.717 9.85133 156.137 9.954 156.594 9.954Z" fill="#DC2626"/>
</svg>
